<svg width="24" height="22" viewBox="0 0 24 22" fill="none" xmlns="http://www.w3.org/2000/svg">
<path d="M12 20L3.47695 10.8554C2.72867 10.0853 2.23477 9.09272 2.06518 8.01801C1.89559 6.94329 2.0589 5.84093 2.53199 4.86696C2.88944 4.13186 3.41158 3.49465 4.05538 3.00783C4.69917 2.52101 5.44621 2.19852 6.23492 2.06692C7.02364 1.93533 7.83147 1.9984 8.59184 2.25093C9.35222 2.50347 10.0434 2.93825 10.6084 3.51944L12 4.95097L13.3916 3.51944C13.9566 2.93825 14.6478 2.50347 15.4082 2.25093C16.1685 1.9984 16.9764 1.93533 17.7651 2.06692C18.5538 2.19852 19.3008 2.52101 19.9446 3.00783C20.5884 3.49465 21.1106 4.13186 21.468 4.86696C21.9411 5.84093 22.1044 6.94329 21.9348 8.01801C21.7652 9.09272 21.2713 10.0853 20.523 10.8554L12 20Z" stroke="#70E61C" stroke-width="2.1" stroke-linecap="round" stroke-linejoin="round"/>
</svg>
