<svg
   width="37.634113mm"
   height="37.63467mm"
   viewBox="0 0 37.634113 37.63467"
   version="1.1"
   id="svg1"
   xmlns:xlink="http://www.w3.org/1999/xlink"
   xmlns="http://www.w3.org/2000/svg"
   xmlns:svg="http://www.w3.org/2000/svg">
  <defs
     id="defs1">
    <linearGradient
       id="swatch2">
      <stop
         style="stop-color:#3dcfb6;stop-opacity:1;"
         offset="0"
         id="stop2" />
    </linearGradient>
    <linearGradient
       xlink:href="#swatch2"
       id="linearGradient3"
       gradientUnits="userSpaceOnUse"
       gradientTransform="matrix(3.1198823,0,0,3.1198823,-59.195925,-247.98023)"
       x1="56.51722"
       y1="167.13666"
       x2="68.059029"
       y2="167.13666" />
  </defs>
  <g
     id="layer1"
     transform="translate(-116.31816,-254.64982)">
    <path
       d="m 116.64454,274.20496 11.83299,-12.59808 2.45023,0.92626 0.10385,19.71117 -2.67405,-0.005 -0.0391,-6.47004 -1.8465,-0.69804 -1.84652,-0.69803 -1.84651,-0.69804 -1.84651,-0.69803 -3.77759,4.02161 z m 8.68762,-1.63839 1.48722,0.56222 1.48723,0.56221 -0.0782,-8.50974 -5.87072,6.26089 1.48723,0.56221"
       id="text29-7-1-5-7"
       style="font-size:25.6268px;font-family:'Lucida Sans Unicode';-inkscape-font-specification:'Lucida Sans Unicode, Normal';fill:#3dcfb6;fill-opacity:1;stroke:#3dcfb6;stroke-width:0"
       aria-label="A" />
    <path
       d="m 139.17628,282.14536 v -19.4194 h 9.62095 l 1.42154,2.06003 h -8.59944 v 8.09563 h 12.33002 l -0.0703,2.05446 -12.25974,-0.0207 v 7.22995 z"
       id="text29-9-6-7-5-6"
       style="font-size:27.1042px;font-family:'Lucida Sans Unicode';-inkscape-font-specification:'Lucida Sans Unicode, Normal';fill:#3dcfb6;fill-opacity:1;stroke:#3dcfb6;stroke-width:0"
       aria-label="F" />
    <path
       id="rect23-8-8-0-6-7-9"
       style="fill:#ffffff;fill-opacity:1;stroke:none;stroke-width:0.207452;stroke-opacity:1"
       d="m 134.09461,259.59638 h 1.95693 l -0.13306,23.48815 h -1.67347 z" />
    <path
       style="color:#000000;fill:url(#linearGradient3);stroke:#3dcfb6;stroke-width:0;stroke-dasharray:none;stroke-dashoffset:0;stroke-opacity:1"
       d="m 122.13268,284.72105 c 0.09,0.10395 0.18129,0.20681 0.27376,0.30856 0.0925,0.10175 0.18613,0.20238 0.28099,0.30187 0.0948,0.0995 0.19088,0.19786 0.28808,0.29505 0.0972,0.0972 0.19555,0.19323 0.29505,0.28809 0.0995,0.0949 0.20012,0.18852 0.30187,0.28099 0.10175,0.0925 0.20461,0.18372 0.30857,0.27376 0.10395,0.09 0.209,0.17883 0.31512,0.26639 0.10612,0.0876 0.21331,0.17386 0.32155,0.2589 0.10824,0.085 0.21752,0.16879 0.32783,0.25126 0.11032,0.0825 0.22165,0.16364 0.334,0.24349 0.11234,0.0799 0.22568,0.1584 0.34001,0.2356 0.11432,0.0772 0.22963,0.15305 0.3459,0.22755 0.11626,0.0745 0.23348,0.14763 0.35164,0.21939 0.11816,0.0718 0.23726,0.14211 0.35727,0.21107 0.12001,0.069 0.24093,0.13652 0.36275,0.20264 0.12181,0.0661 0.24452,0.13082 0.3681,0.19407 0.12357,0.0632 0.24802,0.12503 0.37331,0.18535 0.12529,0.0603 0.25143,0.11917 0.37839,0.17651 0.12696,0.0574 0.25475,0.11321 0.38333,0.16754 0.12859,0.0543 0.25798,0.10715 0.38815,0.15842 0.13017,0.0513 0.26112,0.10101 0.39282,0.14918 0.13171,0.0482 0.26417,0.0948 0.39736,0.13979 0.1332,0.045 0.26713,0.0885 0.40177,0.13028 0.13465,0.0418 0.27,0.082 0.40605,0.12063 0.13604,0.0386 0.27278,0.0755 0.41018,0.11085 0.1374,0.0353 0.27547,0.069 0.41418,0.10092 0.13872,0.032 0.27808,0.0623 0.41806,0.0909 0.13998,0.0286 0.28059,0.0555 0.42179,0.0807 0.1412,0.0252 0.28301,0.0487 0.42539,0.0704 0.14238,0.0217 0.28534,0.0417 0.42886,0.0599 0.14351,0.0182 0.28758,0.0347 0.43219,0.0493 0.1446,0.0147 0.28974,0.0275 0.43538,0.0386 0.14565,0.0111 0.29181,0.0203 0.43845,0.0277 0.14665,0.007 0.29378,0.013 0.44138,0.0167 0.1476,0.004 0.29566,0.006 0.44417,0.006 9.50452,0 17.19141,-7.68884 17.19141,-17.19336 0,-0.14851 -0.002,-0.29657 -0.006,-0.44417 l 1.62447,-0.041 c 0.004,0.16126 0.006,0.32301 0.006,0.48524 0,10.38273 -8.43367,18.81836 -18.8164,18.81836 -0.16223,0 -0.32399,-0.002 -0.48524,-0.006 -0.16126,-0.004 -0.32201,-0.0102 -0.48224,-0.0184 -0.16023,-0.008 -0.31994,-0.0183 -0.47909,-0.0304 -0.15916,-0.0121 -0.31776,-0.0263 -0.47579,-0.0423 -0.15804,-0.0161 -0.31549,-0.0341 -0.47235,-0.0541 -0.15686,-0.02 -0.31312,-0.0419 -0.46875,-0.0657 -0.15564,-0.0238 -0.31065,-0.0496 -0.46501,-0.0772 -0.15436,-0.0276 -0.30807,-0.0571 -0.46111,-0.0885 -0.15304,-0.0314 -0.30541,-0.0646 -0.45708,-0.0997 -0.15167,-0.0351 -0.30264,-0.072 -0.45289,-0.11068 -0.15024,-0.0387 -0.29977,-0.0792 -0.44855,-0.12156 -0.14877,-0.0423 -0.2968,-0.0864 -0.44406,-0.13227 -0.14726,-0.0459 -0.29374,-0.0935 -0.43943,-0.14286 -0.14569,-0.0494 -0.29058,-0.10046 -0.43465,-0.15328 -0.14406,-0.0528 -0.28731,-0.10734 -0.42971,-0.16355 -0.1424,-0.0562 -0.28395,-0.11412 -0.42464,-0.17369 -0.14068,-0.0596 -0.28049,-0.12079 -0.4194,-0.18366 -0.13892,-0.0629 -0.27694,-0.12738 -0.41403,-0.1935 -0.1371,-0.0661 -0.27328,-0.13386 -0.40851,-0.20318 -0.13523,-0.0693 -0.26951,-0.14024 -0.40283,-0.21272 -0.13331,-0.0725 -0.26566,-0.14652 -0.39701,-0.22211 -0.13135,-0.0756 -0.2617,-0.1527 -0.39104,-0.23134 -0.12933,-0.0786 -0.25764,-0.15879 -0.38491,-0.24043 -0.12727,-0.0816 -0.2535,-0.16477 -0.37865,-0.24937 -0.12516,-0.0846 -0.24925,-0.17066 -0.37224,-0.25817 -0.12299,-0.0875 -0.24489,-0.17645 -0.36567,-0.26681 -0.12077,-0.0904 -0.24043,-0.18214 -0.35895,-0.2753 -0.11852,-0.0932 -0.23589,-0.18773 -0.35209,-0.28366 -0.11621,-0.0959 -0.23124,-0.19321 -0.34509,-0.29185 -0.11384,-0.0986 -0.22649,-0.19861 -0.33792,-0.2999 -0.11143,-0.10129 -0.22165,-0.2039 -0.33062,-0.3078 -0.10897,-0.1039 -0.2167,-0.2091 -0.32316,-0.31556 -0.10646,-0.10646 -0.21165,-0.21419 -0.31555,-0.32316 -0.1039,-0.10897 -0.20651,-0.21918 -0.30781,-0.33061 -0.10129,-0.11143 -0.20126,-0.22408 -0.2999,-0.33793 -0.0986,-0.11384 0.0521,0.0729 -0.0438,-0.0433 z m -5.34423,-7.25477 c -0.1191,-0.38106 -0.1486,-0.51723 -0.1762,-0.6716 -0.0276,-0.15436 -0.0533,-0.30937 -0.0772,-0.465 -0.0238,-0.15564 -0.0457,-0.3119 -0.0657,-0.46875 -0.02,-0.15686 -0.038,-0.31432 -0.0541,-0.47235 -0.0161,-0.15803 -0.0302,-0.31664 -0.0423,-0.47579 -0.0121,-0.15916 -0.0223,-0.31886 -0.0304,-0.47909 -0.008,-0.16023 -0.0143,-0.32099 -0.0184,-0.48224 -0.004,-0.16126 -0.006,-0.32301 -0.006,-0.48524 0,-10.38273 8.43563,-18.81641 18.81836,-18.81641 h -4e-5 c 5.19137,0 9.89547,2.10842 13.30173,5.51468 0.10644,0.10645 0.21162,0.21416 0.31551,0.32311 0.10389,0.10896 0.20648,0.21916 0.30776,0.33057 0.10127,0.11142 0.20123,0.22406 0.29985,0.33788 0.0986,0.11383 0.1959,0.22885 0.29181,0.34504 0.0959,0.11619 0.19045,0.23355 0.28361,0.35205 0.0931,0.1185 0.18491,0.23815 0.27526,0.35891 0.0904,0.12076 0.17927,0.24265 0.26676,0.36562 0.0875,0.12298 0.17354,0.24705 0.25812,0.37219 0.0846,0.12515 0.1677,0.25136 0.24933,0.37861 0.0816,0.12726 0.16177,0.25556 0.24039,0.38488 0.0786,0.12932 0.15573,0.25966 0.2313,0.391 0.0756,0.13133 0.28992,0.52091 0.36239,0.65421 l -1.79127,0.006 5e-5,-7.9e-4 c -0.069,-0.12 -0.11591,-0.0988 -0.18765,-0.21691 -0.0717,-0.11814 -0.14486,-0.23535 -0.21934,-0.3516 -0.0745,-0.11626 -0.15034,-0.23155 -0.22752,-0.34586 -0.0772,-0.11431 -0.1557,-0.22764 -0.23555,-0.33997 -0.0798,-0.11233 -0.161,-0.22365 -0.24345,-0.33395 -0.0824,-0.11029 -0.16619,-0.21957 -0.25121,-0.32779 -0.085,-0.10822 -0.17131,-0.2154 -0.25885,-0.3215 -0.0875,-0.10611 -0.17633,-0.21114 -0.26635,-0.31508 -0.09,-0.10394 -0.18127,-0.20679 -0.27372,-0.30852 -0.0924,-0.10173 -0.1861,-0.20233 -0.28094,-0.30183 -0.0948,-0.0995 -0.19086,-0.1978 -0.28804,-0.295 -3.10979,-3.10979 -7.40764,-5.03151 -12.1599,-5.03151 h -1e-5 c -9.50451,0 -17.19336,7.68689 -17.19336,17.19141 0,0.14851 0.002,0.29657 0.006,0.44417 0.004,0.1476 0.009,0.29473 0.0167,0.44138 0.007,0.14664 0.0167,0.2928 0.0277,0.43845 0.0111,0.14565 0.0239,0.29078 0.0386,0.43538 0.0147,0.14461 0.0896,0.55762 0.10777,0.70113 z"
       id="path2-3-20-7-1-9" />
    <ellipse
       style="fill:#ffffff;fill-opacity:1;stroke:none;stroke-width:0;stroke-dasharray:none;stroke-dashoffset:0;stroke-opacity:1"
       id="path29-1-0-4-9-8"
       cx="135.09013"
       cy="286.86353"
       rx="1.5104921"
       ry="1.5397822" />
    <rect
       style="fill:#3dcfb6;fill-opacity:1;stroke:#3dcfb6;stroke-width:0.2;stroke-dasharray:none;stroke-dashoffset:0;stroke-opacity:1"
       id="rect31-8-3-0"
       width="0.18708867"
       height="7.2029138"
       x="266.97385"
       y="110.05541"
       transform="rotate(40.145672)" />
    <rect
       style="fill:#3dcfb6;fill-opacity:1;stroke:#3dcfb6;stroke-width:0.2;stroke-dasharray:none;stroke-dashoffset:0;stroke-opacity:1"
       id="rect31-6-5-7-3"
       width="0.18708882"
       height="8.6415119"
       x="141.77251"
       y="277.40067"
       transform="matrix(0.99999737,0.00229259,-0.00159281,0.99999873,0,0)" />
    <rect
       style="fill:#3dcfb6;fill-opacity:1;stroke:#3dcfb6;stroke-width:0.2;stroke-dasharray:none;stroke-dashoffset:0;stroke-opacity:1"
       id="rect31-6-6-6-7-6"
       width="0.18708882"
       height="8.6415119"
       x="139.70602"
       y="258.50018"
       transform="matrix(0.99999737,0.00229259,-0.00159281,0.99999873,0,0)" />
    <rect
       style="fill:#3dcfb6;fill-opacity:1;stroke:#3dcfb6;stroke-width:0.2;stroke-dasharray:none;stroke-dashoffset:0;stroke-opacity:1"
       id="rect31-6-2-1-4-0"
       width="0.18708882"
       height="8.6415119"
       x="126.72324"
       y="278.13336"
       transform="matrix(0.99998516,-0.00544747,0.00614724,0.99998111,0,0)" />
    <rect
       style="fill:#3dcfb6;fill-opacity:1;stroke:#3dcfb6;stroke-width:0.136563;stroke-dasharray:none;stroke-dashoffset:0;stroke-opacity:1"
       id="rect32-7-9"
       width="9.0356684"
       height="0.29958579"
       x="141.17867"
       y="270.56497" />
  </g>
</svg>
