<?xml version="1.0" encoding="UTF-8" standalone="no"?>
<!-- Created with Inkscape (http://www.inkscape.org/) -->

<svg
   width="37.536793mm"
   height="37.514313mm"
   viewBox="0 0 37.536793 37.514313"
   version="1.1"
   id="svg1"
   inkscape:version="1.3.2 (091e20e, 2023-11-25, custom)"
   sodipodi:docname="logo.svg"
   inkscape:export-filename="logoAF.svg"
   inkscape:export-xdpi="96"
   inkscape:export-ydpi="96"
   xmlns:inkscape="http://www.inkscape.org/namespaces/inkscape"
   xmlns:sodipodi="http://sodipodi.sourceforge.net/DTD/sodipodi-0.dtd"
   xmlns="http://www.w3.org/2000/svg"
   xmlns:svg="http://www.w3.org/2000/svg">
  <sodipodi:namedview
     id="namedview1"
     pagecolor="#ffffff"
     bordercolor="#000000"
     borderopacity="0.25"
     inkscape:showpageshadow="2"
     inkscape:pageopacity="0.0"
     inkscape:pagecheckerboard="0"
     inkscape:deskcolor="#d1d1d1"
     inkscape:document-units="mm"
     inkscape:export-bgcolor="#ffffff00"
     inkscape:zoom="0.70710678"
     inkscape:cx="459.61941"
     inkscape:cy="757.31136"
     inkscape:window-width="2400"
     inkscape:window-height="1261"
     inkscape:window-x="-9"
     inkscape:window-y="135"
     inkscape:window-maximized="1"
     inkscape:current-layer="layer1">
    <inkscape:page
       x="0"
       y="0"
       width="37.536793"
       height="37.514313"
       id="page2"
       margin="0"
       bleed="0" />
  </sodipodi:namedview>
  <defs
     id="defs1">
    <linearGradient
       id="swatch2"
       inkscape:swatch="solid">
      <stop
         style="stop-color:#3dcfb6;stop-opacity:1;"
         offset="0"
         id="stop2" />
    </linearGradient>
  </defs>
  <g
     inkscape:label="Ebene 1"
     inkscape:groupmode="layer"
     id="layer1"
     transform="translate(-347.92708,-133.08541)">
    <ellipse
       style="fill:#ffffff;fill-opacity:1;stroke:none;stroke-width:0;stroke-dasharray:none;stroke-dashoffset:0;stroke-opacity:1"
       id="path29-1-0-4-9-8-9-1-0-89-0"
       cx="366.73172"
       cy="164.98709"
       rx="1.5104921"
       ry="1.5397822"
       inkscape:export-filename="logoAFbigPink.svg"
       inkscape:export-xdpi="96"
       inkscape:export-ydpi="96" />
    <path
       style="fill:#f22983;fill-opacity:1;stroke-width:0.159099"
       d="m 364.99825,170.56837 c -3.673,-0.34306 -7.13451,-1.74866 -10.0794,-4.09289 -0.6258,-0.49816 -2.45371,-2.27312 -2.42414,-2.35392 0.008,-0.023 0.27805,-0.25194 0.5991,-0.50853 l 0.58373,-0.46652 0.59774,0.62188 c 3.79673,3.9502 9.23611,5.85573 14.6822,5.14353 4.46953,-0.58452 8.53427,-2.91269 11.32416,-6.48618 1.92026,-2.45962 3.19047,-5.56533 3.51152,-8.58584 l 0.0609,-0.57295 h -5.34705 -5.34703 v 5.77638 5.77636 h -0.18709 -0.18708 v -2.15152 -2.15153 h -1.0056 -1.00561 v -11.69305 -11.69303 h 0.1637 0.16371 v 1.98781 1.98782 h 4.51351 c 2.48244,0 4.51352,-0.013 4.51352,-0.0287 0,-0.0891 -1.073,-1.25003 -1.67873,-1.81629 -2.75603,-2.57648 -6.19135,-4.13727 -9.99093,-4.53926 -0.67454,-0.0714 -2.45672,-0.094 -3.13373,-0.0397 l -0.37418,0.03 -2.26845,2.68979 c -1.24764,1.47938 -2.2958,2.71138 -2.28031,2.71808 0.30354,0.13132 0.47134,0.1869 0.96297,0.3649 0.54395,0.19695 1.11814,0.43603 1.11814,0.43603 3.4e-4,0.007 0.0178,0.84027 0.0954,16.87124 l 0.0137,2.83662 -1.1611,-0.0185 h -1.13422 v 1.96443 1.96442 h -0.15604 -0.15605 l -0.031,-2.67372 c -0.0171,-1.47053 -0.031,-3.80606 -0.031,-5.19006 0,-2.34887 -0.005,-2.51921 -0.0819,-2.55958 -0.12712,-0.0672 -7.28448,-2.76638 -7.33543,-2.76638 -0.0496,0 -2.73094,2.84784 -3.57812,3.80024 -0.29176,0.32797 -0.54476,0.59634 -0.56224,0.59634 -0.077,0 -0.26356,-1.02632 -0.37835,-2.08137 -0.0911,-0.8372 -0.0765,-3.00813 0.026,-3.88207 0.52136,-4.44297 2.51274,-8.46368 5.69717,-11.50297 3.04074,-2.90214 6.78067,-4.63945 11.05372,-5.13477 0.69153,-0.0802 3.20441,-0.0791 3.8821,0.002 5.17811,0.61698 9.56886,3.03095 12.74933,7.00941 0.74704,0.93446 1.98325,2.86092 1.89348,2.95069 -0.0177,0.0177 -2.30406,0.0404 -5.08076,0.0505 l -5.04854,0.0183 v 2.87097 2.87096 h 9.05136 v 0.37418 h -9.05136 v 1.00568 1.00568 l 12.28943,0.10866 c 0.0469,0.3977 -0.0351,1.8556 -0.0351,1.8556 v 0.1828 c 0,0.3066 -0.13837,1.29823 -0.2845,2.03888 -0.85008,4.30837 -3.22774,8.23055 -6.66509,10.99473 -2.30514,1.8537 -5.07174,3.1623 -7.95178,3.76124 -1.30336,0.27106 -1.95461,0.33522 -3.57364,0.35208 -0.81033,0.008 -1.6838,-0.004 -1.94105,-0.0283 z m -5.14621,-22.77282 c -0.0192,-2.34342 -0.0502,-4.25471 -0.0689,-4.2473 -0.0188,0.007 -1.35533,1.42258 -2.97013,3.14483 -2.49243,2.65827 -2.92266,3.13704 -2.8477,3.16908 0.34624,0.14798 5.8914,2.22435 5.90473,2.21101 0.009,-0.009 10e-4,-1.93421 -0.018,-4.27762 z m -5.03361,-2.21221 c 5.1363,-5.46968 5.27816,-5.62578 7.41958,-8.16446 1.20074,-1.42349 2.17174,-2.5996 2.15777,-2.61357 -0.0444,-0.0444 -1.2159,0.17098 -1.95673,0.3598 -6.48554,1.65301 -11.41335,6.89731 -12.65837,13.47139 -0.18561,0.98004 -0.34489,2.61353 -0.24908,2.55431 0.0277,-0.0172 2.4068,-2.5405 5.28683,-5.60747 z"
       id="path8-9-6"
       sodipodi:nodetypes="sssscsssscccccccccccccccccssssscssscscccccccsssssssssscsssccccccccccssssscssssssssssssss"
       inkscape:export-filename="logoAFbigPink.svg"
       inkscape:export-xdpi="96"
       inkscape:export-ydpi="96" />
    <path
       style="fill:#ffffff;fill-opacity:1;stroke-width:0.711351"
       d="m 365.98728,138.29654 c -1.07438,0.77721 0.36525,22.45064 0.36525,22.45064 l 0.8149,-5.6e-4 c 0,0 1.46102,-21.67083 0.32465,-22.44804 -0.30992,-0.38861 -0.90562,-0.72964 -1.5048,-0.002 z"
       id="path8-1"
       sodipodi:nodetypes="ccccc" />
  </g>
</svg>
