<?xml version="1.0" encoding="UTF-8" standalone="no"?>
<!-- Created with Inkscape (http://www.inkscape.org/) -->

<svg
   width="37.634804mm"
   height="37.63464mm"
   viewBox="0 0 37.634804 37.63464"
   version="1.1"
   id="svg1"
   xmlns:xlink="http://www.w3.org/1999/xlink"
   xmlns="http://www.w3.org/2000/svg"
   xmlns:svg="http://www.w3.org/2000/svg">
  <defs
     id="defs1">
    <linearGradient
       id="swatch2">
      <stop
         style="stop-color:#3dcfb6;stop-opacity:1;"
         offset="0"
         id="stop2" />
    </linearGradient>
    <linearGradient
       xlink:href="#swatch2"
       id="linearGradient2"
       x1="56.51722"
       y1="167.13666"
       x2="68.059029"
       y2="167.13666"
       gradientUnits="userSpaceOnUse"
       gradientTransform="matrix(3.1198823,0,0,3.1198823,-157.4384,-345.00708)" />
  </defs>
  <g
     id="layer1"
     transform="translate(-18.075543,-157.62295)">
    <path
       d="m 20.621407,186.03032 10.402144,-20.18496 h 2.956576 l -0.02265,20.65174 h -2.575273 l 6.45e-4,-9.41887 h -3.658971 l -5.44039,10.6243 z m 8.159228,-11.03122 h 2.558993 l 0.1289,-5.46992 z"
       id="text21-1"
       style="font-size:25.4px;font-family:'Lucida Sans Typewriter';-inkscape-font-specification:'Lucida Sans Typewriter, Normal';fill:#3dcfb6;fill-opacity:1;stroke-width:0.279732"
       aria-label="A" />
    <path
       d="m 39.808235,186.33006 v -20.65173 h 12.127303 v 2.06517 H 42.19549 v 7.12064 h 8.516182 v 2.06518 H 42.19549 v 9.40074 z"
       id="text22-1"
       style="font-size:25.4px;font-family:'Lucida Sans Typewriter';-inkscape-font-specification:'Lucida Sans Typewriter, Normal';fill:#3dcfb6;fill-opacity:1;stroke:none;stroke-width:0.306618;stroke-opacity:1"
       aria-label="F" />
    <path
       id="rect23-8"
       style="fill:#ffffff;fill-opacity:1;stroke-width:0.209042"
       d="m 35.937573,162.94703 h 1.977737 l -0.13447,23.59856 h -1.691257 z" />
    <path
       style="color:#000000;fill:url(#linearGradient2);stroke:#3dcfb6;stroke-width:0;stroke-dasharray:none;stroke-dashoffset:0;stroke-opacity:1"
       d="m 21.869076,184.77763 c 0.06896,0.12001 0.246814,0.46235 0.318565,0.58051 0.07175,0.11816 0.144887,0.23538 0.219385,0.35165 0.0745,0.11626 0.150356,0.23157 0.227555,0.34589 0.0772,0.11433 0.155737,0.22767 0.235592,0.34002 0.07986,0.11234 0.161028,0.22367 0.243494,0.33399 0.08247,0.11031 0.166229,0.2196 0.251263,0.32783 0.08503,0.10824 0.17134,0.21543 0.258896,0.32155 0.08755,0.10612 0.176361,0.21117 0.266394,0.31513 0.09003,0.10395 0.181294,0.20681 0.27376,0.30856 0.09247,0.10175 0.186136,0.20238 0.280989,0.30187 0.09485,0.0995 0.190889,0.19786 0.288085,0.29505 0.0972,0.0972 0.195553,0.19323 0.295047,0.28809 0.09949,0.0949 0.200126,0.18852 0.301873,0.28099 0.101748,0.0925 0.204611,0.18372 0.308566,0.27376 0.103956,0.09 0.209005,0.17883 0.315124,0.26639 0.10612,0.0876 0.21331,0.17386 0.321548,0.2589 0.108238,0.085 0.217524,0.16879 0.327837,0.25126 0.110312,0.0825 0.22165,0.16364 0.333991,0.24349 0.112341,0.0799 0.225686,0.1584 0.340012,0.2356 0.114326,0.0772 0.229632,0.15305 0.345898,0.22755 0.116265,0.0745 0.233489,0.14763 0.351649,0.21939 0.11816,0.0718 0.237256,0.14211 0.357266,0.21107 0.12001,0.069 0.240934,0.13652 0.362749,0.20264 0.121815,0.0661 0.244522,0.13082 0.368097,0.19407 0.123576,0.0632 0.24802,0.12503 0.373311,0.18535 0.125291,0.0603 0.251429,0.11917 0.37839,0.17651 0.126962,0.0574 0.254748,0.11321 0.383335,0.16754 0.128588,0.0543 0.257977,0.10715 0.388146,0.15842 0.130169,0.0513 0.261117,0.10101 0.392822,0.14918 0.131705,0.0482 0.264167,0.0948 0.397363,0.13979 0.133197,0.045 0.267128,0.0885 0.401771,0.13028 0.134643,0.0418 0.269998,0.082 0.406043,0.12063 0.136045,0.0386 0.27278,0.0755 0.410182,0.11085 0.137402,0.0353 0.275471,0.069 0.414185,0.10092 0.138715,0.032 0.278074,0.0623 0.418055,0.0909 0.139982,0.0286 0.280586,0.0555 0.421791,0.0807 0.141204,0.0252 0.283008,0.0487 0.425391,0.0704 0.142382,0.0217 0.285342,0.0417 0.428857,0.0599 0.143515,0.0182 0.287585,0.0347 0.432189,0.0493 0.144603,0.0147 0.289739,0.0275 0.435386,0.0386 0.145647,0.0111 0.291804,0.0203 0.438449,0.0277 0.146646,0.007 0.293779,0.013 0.441378,0.0167 0.147599,0.004 0.295664,0.006 0.444172,0.006 9.504516,0 17.191407,-7.68884 17.191407,-17.19336 0,-0.14851 -0.0019,-0.29657 -0.0056,-0.44417 -0.0037,-0.1476 -0.0093,-0.29473 -0.01673,-0.44137 -0.0074,-0.14665 -0.01667,-0.2928 -0.02773,-0.43845 -0.01106,-0.14564 -0.02392,-0.29077 -0.03858,-0.43537 -0.01465,-0.1446 -0.03109,-0.28867 -0.0493,-0.43218 -0.0182,-0.14351 -0.03817,-0.28647 -0.05989,-0.42884 -0.02172,-0.14238 -0.04517,-0.28418 -0.07035,-0.42538 -0.02518,-0.1412 -0.05208,-0.28179 -0.08067,-0.42177 -0.02859,-0.13997 -0.05888,-0.27933 -0.09085,-0.41803 -0.03196,-0.13871 -0.06561,-0.27677 -0.100903,-0.41417 -0.03529,-0.13739 -0.07224,-0.27412 -0.11082,-0.41015 -0.03857,-0.13604 -0.07878,-0.27139 -0.120603,-0.40602 -0.04182,-0.13463 -0.08524,-0.26855 -0.13025,-0.40174 l 1.68051,-0.0743 c 0.04585,0.14725 0.08995,0.29527 0.132251,0.44404 0.04231,0.14877 0.08282,0.29828 0.121529,0.44852 0.03871,0.15024 0.0756,0.3012 0.110659,0.45287 0.03506,0.15166 0.06828,0.30402 0.09964,0.45705 0.03136,0.15303 0.06086,0.30674 0.08847,0.4611 0.02761,0.15435 0.05334,0.30936 0.07716,0.46499 0.02382,0.15563 0.04573,0.31188 0.0657,0.46874 0.01997,0.15685 0.038,0.3143 0.05408,0.47233 0.01607,0.15803 0.03019,0.31663 0.04232,0.47578 0.01213,0.15916 0.02231,0.31886 0.03041,0.47909 0.0081,0.16022 0.01426,0.32098 0.01836,0.48223 0.0041,0.16126 0.0062,0.32301 0.0062,0.48524 0,10.38273 -8.433676,18.81836 -18.816407,18.81836 -0.16223,0 -0.323985,-0.002 -0.48524,-0.006 -0.161254,-0.004 -0.322009,-0.0102 -0.482238,-0.0184 -0.16023,-0.008 -0.319935,-0.0183 -0.47909,-0.0304 -0.159155,-0.0121 -0.317761,-0.0263 -0.475792,-0.0423 -0.158031,-0.0161 -0.315488,-0.0341 -0.472346,-0.0541 -0.156857,-0.02 -0.313116,-0.0419 -0.468751,-0.0657 -0.155634,-0.0238 -0.310645,-0.0496 -0.465007,-0.0772 -0.154362,-0.0276 -0.308076,-0.0571 -0.461116,-0.0885 -0.15304,-0.0314 -0.305407,-0.0646 -0.457076,-0.0997 -0.151668,-0.0351 -0.302639,-0.072 -0.452887,-0.11068 -0.150247,-0.0387 -0.299772,-0.0792 -0.448549,-0.12156 -0.148777,-0.0423 -0.296807,-0.0864 -0.444064,-0.13227 -0.147257,-0.0459 -0.293742,-0.0935 -0.439429,-0.14286 -0.145688,-0.0494 -0.290578,-0.10046 -0.434647,-0.15328 -0.144068,-0.0528 -0.287315,-0.10734 -0.429715,-0.16355 -0.1424,-0.0562 -0.283953,-0.11412 -0.424635,-0.17369 -0.140682,-0.0596 -0.280493,-0.12079 -0.419407,-0.18366 -0.138915,-0.0629 -0.276933,-0.12738 -0.41403,-0.1935 -0.137098,-0.0661 -0.273274,-0.13386 -0.408505,-0.20318 -0.135231,-0.0693 -0.269516,-0.14024 -0.402831,-0.21272 -0.133315,-0.0725 -0.265659,-0.14652 -0.397008,-0.22211 -0.13135,-0.0756 -0.261704,-0.1527 -0.391038,-0.23134 -0.129334,-0.0786 -0.257648,-0.15879 -0.384918,-0.24043 -0.12727,-0.0816 -0.253495,-0.16477 -0.37865,-0.24937 -0.125156,-0.0846 -0.249242,-0.17066 -0.372234,-0.25817 -0.122992,-0.0875 -0.24489,-0.17645 -0.365668,-0.26681 -0.120779,-0.0904 -0.240439,-0.18214 -0.358956,-0.2753 -0.118516,-0.0932 -0.235889,-0.18773 -0.352093,-0.28366 -0.116204,-0.0959 -0.23124,-0.19321 -0.345083,-0.29185 -0.113842,-0.0986 -0.226492,-0.19861 -0.337923,-0.2999 -0.111432,-0.10129 -0.221646,-0.2039 -0.330617,-0.3078 -0.108971,-0.1039 -0.216699,-0.2091 -0.32316,-0.31556 -0.106461,-0.10646 -0.211654,-0.21419 -0.315556,-0.32316 -0.103901,-0.10897 -0.20651,-0.21918 -0.307802,-0.33061 -0.101292,-0.11143 -0.201268,-0.22408 -0.299901,-0.33793 -0.09863,-0.11384 -0.195926,-0.22887 -0.291851,-0.34508 -0.09593,-0.1162 -0.190485,-0.23358 -0.283653,-0.35209 -0.09317,-0.11852 -0.184944,-0.23818 -0.275305,-0.35896 -0.09036,-0.12078 -0.179305,-0.24267 -0.26681,-0.36567 -0.0875,-0.12299 -0.173567,-0.24707 -0.258165,-0.37223 -0.0846,-0.12516 -0.363403,-0.49299 -0.669047,-0.91809 z m -2.486883,-1.44231 c -0.05622,-0.1424 -0.110743,-0.28565 -0.163557,-0.42972 -0.05281,-0.14407 -0.103915,-0.28896 -0.153278,-0.43464 -0.04936,-0.14569 -0.09699,-0.29218 -0.142853,-0.43943 -0.04586,-0.14726 -0.08996,-0.29529 -0.132277,-0.44407 -0.04231,-0.14877 -0.08284,-0.2983 -0.121555,-0.44855 -0.03871,-0.15024 -0.07562,-0.30122 -0.110682,-0.45288 -0.03507,-0.15167 -0.06829,-0.30404 -0.09966,-0.45708 -0.03137,-0.15304 -0.06087,-0.30675 -0.08849,-0.46112 -0.02762,-0.15436 -0.05335,-0.30937 -0.07718,-0.465 -0.02382,-0.15564 -0.04573,-0.3119 -0.06571,-0.46875 -0.01998,-0.15686 -0.03802,-0.31432 -0.0541,-0.47235 -0.01608,-0.15803 -0.0302,-0.31664 -0.04233,-0.47579 -0.01213,-0.15916 -0.02228,-0.31886 -0.03042,-0.47909 -0.0081,-0.16023 -0.01427,-0.32099 -0.01836,-0.48224 -0.0041,-0.16126 -0.0062,-0.32301 -0.0062,-0.48524 0,-10.38273 8.43563,-18.81641 18.818359,-18.81641 h -3.5e-5 c 5.191365,0 9.895467,2.10842 13.301728,5.51468 0.106446,0.10645 0.211624,0.21416 0.31551,0.32311 0.103886,0.10896 0.20648,0.21916 0.307757,0.33057 0.101277,0.11142 0.201235,0.22406 0.299855,0.33788 0.09862,0.11383 0.195896,0.22885 0.291806,0.34504 0.09591,0.11619 0.190458,0.23355 0.283608,0.35205 0.09315,0.1185 0.18491,0.23815 0.27526,0.35891 0.09035,0.12076 0.179276,0.24265 0.266766,0.36562 0.08749,0.12298 0.173543,0.24705 0.258123,0.37219 0.08458,0.12515 0.1677,0.25136 0.24933,0.37861 0.08163,0.12726 0.16177,0.25556 0.24039,0.38488 0.07862,0.12932 0.155731,0.25966 0.231301,0.391 0.07557,0.13133 0.289912,0.52091 0.362382,0.65421 l -1.791263,0.006 4.7e-5,-7.9e-4 c -0.06895,-0.12 -0.115912,-0.0988 -0.187652,-0.21691 -0.07174,-0.11814 -0.144862,-0.23535 -0.219342,-0.3516 -0.07448,-0.11626 -0.150333,-0.23155 -0.227513,-0.34586 -0.07719,-0.11431 -0.155709,-0.22764 -0.235549,-0.33997 -0.07984,-0.11233 -0.161001,-0.22365 -0.243451,-0.33395 -0.08245,-0.11029 -0.166197,-0.21957 -0.251217,-0.32779 -0.08502,-0.10822 -0.171311,-0.2154 -0.258851,-0.3215 -0.08754,-0.10611 -0.17633,-0.21114 -0.26635,-0.31508 -0.09002,-0.10394 -0.181264,-0.20679 -0.273714,-0.30852 -0.09245,-0.10173 -0.186104,-0.20233 -0.280944,-0.30183 -0.09484,-0.0995 -0.190859,-0.1978 -0.288039,-0.295 -3.109787,-3.10979 -7.407639,-5.03151 -12.159897,-5.03151 h -1.2e-5 c -9.504515,0 -17.193359,7.68689 -17.193359,17.19141 0,0.14851 0.0019,0.29657 0.0056,0.44417 0.0037,0.1476 0.0093,0.29473 0.01674,0.44138 0.0074,0.14664 0.01667,0.2928 0.02773,0.43845 0.01106,0.14565 0.02393,0.29078 0.03859,0.43538 0.01466,0.14461 0.0311,0.28868 0.04932,0.43219 0.01821,0.14352 0.03819,0.28648 0.05991,0.42886 0.02172,0.14238 0.04518,0.28419 0.07036,0.42539 0.02518,0.14121 0.05209,0.28181 0.08069,0.42179 0.0286,0.13998 0.0589,0.27934 0.09087,0.41806 0.03197,0.13871 0.06562,0.27678 0.100926,0.41418 0.0353,0.1374 0.07226,0.27414 0.110846,0.41018 0.03859,0.13605 0.0788,0.2714 0.120629,0.40605 z"
       id="path2" />
    <circle
       style="fill:#ffffff;fill-opacity:1;stroke:#3dcfb6;stroke-width:0;stroke-dasharray:none;stroke-dashoffset:0;stroke-opacity:1"
       id="path29"
       cx="36.924679"
       cy="189.08533"
       r="1.3229166" />
  </g>
</svg>
