<?xml version="1.0" encoding="UTF-8" standalone="no"?>
<!-- Created with Inkscape (http://www.inkscape.org/) -->

<svg
   width="82.383461mm"
   height="37.514297mm"
   viewBox="0 0 82.383461 37.514297"
   version="1.1"
   id="svg1"
   inkscape:version="1.3.2 (091e20e, 2023-11-25, custom)"
   sodipodi:docname="logo.svg"
   inkscape:export-filename="logoAF.svg"
   inkscape:export-xdpi="96"
   inkscape:export-ydpi="96"
   xmlns:inkscape="http://www.inkscape.org/namespaces/inkscape"
   xmlns:sodipodi="http://sodipodi.sourceforge.net/DTD/sodipodi-0.dtd"
   xmlns="http://www.w3.org/2000/svg"
   xmlns:svg="http://www.w3.org/2000/svg">
  <sodipodi:namedview
     id="namedview1"
     pagecolor="#ffffff"
     bordercolor="#000000"
     borderopacity="0.25"
     inkscape:showpageshadow="2"
     inkscape:pageopacity="0.0"
     inkscape:pagecheckerboard="0"
     inkscape:deskcolor="#d1d1d1"
     inkscape:document-units="mm"
     inkscape:export-bgcolor="#ffffff00"
     inkscape:zoom="0.70710678"
     inkscape:cx="459.61941"
     inkscape:cy="757.31136"
     inkscape:window-width="2400"
     inkscape:window-height="1261"
     inkscape:window-x="-9"
     inkscape:window-y="135"
     inkscape:window-maximized="1"
     inkscape:current-layer="layer1">
    <inkscape:page
       x="-2.5534447e-12"
       y="0"
       width="82.383469"
       height="37.514297"
       id="page2"
       margin="0"
       bleed="0" />
  </sodipodi:namedview>
  <defs
     id="defs1">
    <linearGradient
       id="swatch2"
       inkscape:swatch="solid">
      <stop
         style="stop-color:#3dcfb6;stop-opacity:1;"
         offset="0"
         id="stop2" />
    </linearGradient>
  </defs>
  <g
     inkscape:label="Ebene 1"
     inkscape:groupmode="layer"
     id="layer1"
     transform="translate(-345.33073,-256.50256)">
    <path
       d="m 383.64931,268.50429 3.74674,-10.89331 h 1.64788 l 3.66002,10.89331 h -1.42238 l -0.91935,-2.79271 h -4.3365 l -0.95403,2.79271 z m 2.72333,-3.85083 h 3.64267 l -1.82134,-5.39462 z m 14.44057,3.85083 v -4.87423 q 0,-1.18822 -0.57242,-1.80399 -0.56375,-0.62446 -1.5438,-0.62446 -0.74588,0 -1.29228,0.40762 -0.5464,0.40764 -0.84128,1.17086 -0.29489,0.75456 -0.29489,1.80399 h -0.52037 q 0,-1.44839 0.38161,-2.4718 0.3816,-1.02342 1.11014,-1.56115 0.73721,-0.5464 1.78665,-0.5464 0.98005,0 1.67389,0.44233 0.70251,0.43365 1.07545,1.24891 0.37295,0.81527 0.37295,1.93409 v 4.87423 z m -5.89765,0 v -8.29141 h 1.16217 l 0.19081,1.90806 v 6.38335 z m 16.36599,0 v -4.87423 q 0,-1.18822 -0.57242,-1.80399 -0.56375,-0.62446 -1.5438,-0.62446 -0.74588,0 -1.29228,0.40762 -0.5464,0.40764 -0.84128,1.17086 -0.29489,0.75456 -0.29489,1.80399 h -0.52037 q 0,-1.44839 0.3816,-2.4718 0.38161,-1.02342 1.11015,-1.56115 0.73721,-0.5464 1.78664,-0.5464 0.98006,0 1.6739,0.44233 0.70251,0.43365 1.07545,1.24891 0.37294,0.81527 0.37294,1.93409 v 4.87423 z m -5.89765,0 v -8.29141 h 1.16217 l 0.19081,1.90806 v 6.38335 z m 15.60278,0 -0.17346,-1.82134 v -3.55593 q 0,-1.11883 -0.47702,-1.60451 -0.47702,-0.49436 -1.43106,-0.49436 -0.53772,0 -0.98005,0.15611 -0.43365,0.15611 -0.69383,0.48569 -0.25152,0.3209 -0.25152,0.83261 h -1.50911 q 0,-0.90199 0.44233,-1.44839 0.44232,-0.55508 1.21421,-0.79792 0.78058,-0.25152 1.77797,-0.25152 0.95404,0 1.69125,0.3209 0.7372,0.3209 1.15351,1.02342 0.4163,0.69383 0.4163,1.81266 v 5.34258 z m -2.82741,0.20815 q -1.02342,0 -1.69124,-0.36427 -0.66782,-0.36427 -0.9974,-0.94535 -0.32958,-0.58109 -0.32958,-1.2229 0,-0.84129 0.41631,-1.37034 0.42498,-0.52905 1.15351,-0.7719 0.72854,-0.25152 1.63921,-0.25152 0.65047,0 1.30095,0.13017 0.65915,0.13003 1.2836,0.3556 v 0.84995 q -0.52037,-0.20815 -1.17952,-0.32958 -0.65048,-0.12141 -1.19688,-0.12141 -0.83261,0 -1.40503,0.34691 -0.57242,0.33825 -0.57242,1.16219 0,0.60711 0.43365,1.04076 0.44232,0.43365 1.40503,0.43365 0.67649,0 1.21422,-0.31223 0.5464,-0.3209 0.85864,-0.79791 0.3209,-0.47702 0.3209,-0.95404 h 0.32957 q 0,0.83261 -0.36426,1.5438 -0.35561,0.71119 -1.02342,1.14484 -0.66783,0.43365 -1.59584,0.43365 z"
       id="text29-96-3-4-2-3-4"
       style="font-size:12.7px;font-family:Karla;-inkscape-font-specification:'Karla, Normal';fill:#ffffff;stroke:#ffffff;stroke-width:0.273166;stroke-dasharray:none;stroke-opacity:1"
       aria-label="Anna"
       inkscape:export-filename="logoAFbig.svg"
       inkscape:export-xdpi="96"
       inkscape:export-ydpi="96" />
    <g
       id="text29-9-5-9-3-7-3-3"
       style="font-size:12.7px;font-family:Karla;-inkscape-font-specification:'Karla, Normal';fill:#ffffff;stroke:#ffffff;stroke-width:0.2;stroke-dasharray:none;stroke-opacity:1"
       aria-label="Fritz"
       transform="matrix(1.3658304,0,0,1.3658304,170.68363,5.749336)">
      <path
         d="m 157.50621,209.64362 v -7.9756 h 4.8514 v 0.8509 h -3.8608 v 2.6543 h 3.5941 v 0.8509 h -3.5941 v 3.6195 z"
         id="path1-4-1-2"
         style="stroke:#ffffff;stroke-width:0.2;stroke-dasharray:none;stroke-opacity:1" />
      <path
         d="m 164.16101,209.64362 v -6.0833 h 0.9906 v 6.0833 z m 0.6858,-2.7432 c 0,-0.77047 0.0741,-1.4097 0.22225,-1.9177 0.14817,-0.51223 0.36407,-0.89323 0.6477,-1.143 0.28787,-0.254 0.63712,-0.381 1.04775,-0.381 0.13547,0 0.25823,0.0106 0.3683,0.0317 0.1143,0.0169 0.2286,0.0445 0.3429,0.0826 l -0.0635,0.9779 c -0.11853,-0.0381 -0.24765,-0.0698 -0.38735,-0.0952 -0.1397,-0.0297 -0.26458,-0.0445 -0.37465,-0.0445 -0.35983,0 -0.64982,0.10372 -0.86995,0.31115 -0.22013,0.2032 -0.381,0.49107 -0.4826,0.8636 -0.0974,0.37253 -0.14605,0.81068 -0.14605,1.31445 z m 4.46405,-4.7625 c -0.2032,0 -0.36407,-0.0572 -0.4826,-0.17145 -0.11853,-0.11853 -0.1778,-0.27305 -0.1778,-0.46355 0,-0.18627 0.0593,-0.33443 0.1778,-0.4445 0.11853,-0.11007 0.2794,-0.1651 0.4826,-0.1651 0.2032,0 0.36407,0.055 0.4826,0.1651 0.11853,0.11007 0.1778,0.25823 0.1778,0.4445 0,0.1905 -0.0593,0.34502 -0.1778,0.46355 -0.11853,0.1143 -0.2794,0.17145 -0.4826,0.17145 z m -0.4953,7.5057 v -6.0833 h 0.9906 v 6.0833 z m 5.588,0.1524 c -0.3302,0 -0.62653,-0.0635 -0.889,-0.1905 -0.26247,-0.127 -0.4699,-0.3175 -0.6223,-0.5715 -0.1524,-0.254 -0.2286,-0.5715 -0.2286,-0.9525 v -6.1976 h 0.9779 v 6.1722 c 0,0.62653 0.2921,0.9398 0.8763,0.9398 0.17357,0 0.34078,-0.0191 0.50165,-0.0572 0.1651,-0.0381 0.34925,-0.0953 0.55245,-0.17145 l 0.1397,0.7112 c -0.2159,0.0931 -0.4318,0.16933 -0.6477,0.2286 -0.21167,0.0593 -0.4318,0.0889 -0.6604,0.0889 z m -2.7178,-5.5372 v -0.6858 h 3.8735 v 0.6858 z m 5.54567,5.3848 v -0.8001 l 3.5814,-4.4704 h -3.5814 v -0.8001 h 4.699 v 0.8001 l -3.5306,4.4704 h 3.5306 v 0.8001 z"
         id="path3-6-9-2"
         style="stroke:#ffffff;stroke-width:0.2;stroke-dasharray:none;stroke-opacity:1"
         sodipodi:nodetypes="ccccccccsccccsccccscssssscscccccssssccssccccsscccccccccccccccc" />
    </g>
    <ellipse
       style="fill:#ffffff;fill-opacity:1;stroke:none;stroke-width:0;stroke-dasharray:none;stroke-dashoffset:0;stroke-opacity:1"
       id="path29-1-0-4-9-8-9-1-0-89"
       cx="364.13541"
       cy="288.40421"
       rx="1.5104921"
       ry="1.5397822" />
    <path
       style="fill:#f22983;fill-opacity:1;stroke-width:0.159099"
       d="m 362.40194,293.98549 c -3.673,-0.34306 -7.13451,-1.74866 -10.0794,-4.09289 -0.6258,-0.49816 -2.45371,-2.27312 -2.42414,-2.35392 0.008,-0.023 0.27805,-0.25194 0.5991,-0.50853 l 0.58373,-0.46652 0.59774,0.62188 c 3.79673,3.9502 9.23611,5.85573 14.6822,5.14353 4.46953,-0.58452 8.53427,-2.91269 11.32416,-6.48618 1.92026,-2.45962 3.19047,-5.56533 3.51152,-8.58584 l 0.0609,-0.57295 h -5.34705 -5.34703 v 5.77638 5.77636 h -0.18709 -0.18708 v -2.15152 -2.15153 h -1.0056 -1.00561 v -11.69305 -11.69303 h 0.1637 0.16371 v 1.98781 1.98782 h 4.51351 c 2.48244,0 4.51352,-0.013 4.51352,-0.0287 0,-0.0891 -1.073,-1.25003 -1.67873,-1.81629 -2.75603,-2.57648 -6.19135,-4.13727 -9.99093,-4.53926 -0.67454,-0.0714 -2.45672,-0.094 -3.13373,-0.0397 l -0.37418,0.03 -2.26845,2.68979 c -1.24764,1.47938 -2.2958,2.71138 -2.28031,2.71808 0.30354,0.13132 0.47134,0.1869 0.96297,0.3649 0.54395,0.19695 1.11814,0.43603 1.11814,0.43603 3.4e-4,0.007 0.0178,0.84027 0.0954,16.87124 l 0.0137,2.83662 -1.1611,-0.0185 h -1.13422 v 1.96443 1.96442 h -0.15604 -0.15605 l -0.031,-2.67372 c -0.0171,-1.47053 -0.031,-3.80606 -0.031,-5.19006 0,-2.34887 -0.005,-2.51921 -0.0819,-2.55958 -0.12712,-0.0672 -7.28448,-2.76638 -7.33543,-2.76638 -0.0496,0 -2.73094,2.84784 -3.57812,3.80024 -0.29176,0.32797 -0.54476,0.59634 -0.56224,0.59634 -0.077,0 -0.26356,-1.02632 -0.37835,-2.08137 -0.0911,-0.8372 -0.0765,-3.00813 0.026,-3.88207 0.52136,-4.44297 2.51274,-8.46368 5.69717,-11.50297 3.04074,-2.90214 6.78067,-4.63945 11.05372,-5.13477 0.69153,-0.0802 3.20441,-0.0791 3.8821,0.002 5.17811,0.61698 9.56886,3.03095 12.74933,7.00941 0.74704,0.93446 1.98325,2.86092 1.89348,2.95069 -0.0177,0.0177 -2.30406,0.0404 -5.08076,0.0505 l -5.04854,0.0183 v 2.87097 2.87096 h 27.19802 27.19803 v 0.18709 0.18709 h -27.19803 -27.19802 v 1.00568 1.00568 l 28.20518,-2.4e-4 c 27.67928,-2.1e-4 28.20842,0.003 28.37902,0.0892 0.62799,0.32301 0.75766,1.08289 0.26832,1.57224 -0.1061,0.10609 -0.27194,0.21312 -0.38055,0.24556 -0.15113,0.0452 -4.92305,0.0575 -22.20508,0.0575 h -22.01257 v 0.1828 c 0,0.3066 -0.13837,1.29823 -0.2845,2.03888 -0.85008,4.30837 -3.22774,8.23055 -6.66509,10.99473 -2.30514,1.8537 -5.07174,3.1623 -7.95178,3.76124 -1.30336,0.27106 -1.95461,0.33522 -3.57364,0.35208 -0.81033,0.008 -1.6838,-0.004 -1.94105,-0.0283 z m -5.14621,-22.77282 c -0.0192,-2.34342 -0.0502,-4.25471 -0.0689,-4.2473 -0.0188,0.007 -1.35533,1.42258 -2.97013,3.14483 -2.49243,2.65827 -2.92266,3.13704 -2.8477,3.16908 0.34624,0.14798 5.8914,2.22435 5.90473,2.21101 0.009,-0.009 10e-4,-1.93421 -0.018,-4.27762 z m -5.03361,-2.21221 c 5.1363,-5.46968 5.27816,-5.62578 7.41958,-8.16446 1.20074,-1.42349 2.17174,-2.5996 2.15777,-2.61357 -0.0444,-0.0444 -1.2159,0.17098 -1.95673,0.3598 -6.48554,1.65301 -11.41335,6.89731 -12.65837,13.47139 -0.18561,0.98004 -0.34489,2.61353 -0.24908,2.55431 0.0277,-0.0172 2.4068,-2.5405 5.28683,-5.60747 z"
       id="path8-9"
       sodipodi:nodetypes="sssscsssscccccccccccccccccssssscssscscccccccsssssssssscssscccccccccccscssscssssscssssssssssssss"
       inkscape:export-filename="logoAFbigPink.svg"
       inkscape:export-xdpi="96"
       inkscape:export-ydpi="96" />
    <path
       style="fill:#ffffff;fill-opacity:1;stroke-width:0.711351"
       d="m 363.39097,261.71366 c -1.07438,0.77721 0.36525,22.45064 0.36525,22.45064 l 0.8149,-5.6e-4 c 0,0 1.46102,-21.67083 0.32465,-22.44804 -0.30992,-0.38861 -0.90562,-0.72964 -1.5048,-0.002 z"
       id="path8"
       sodipodi:nodetypes="ccccc" />
  </g>
</svg>
